<?xml version="1.0" encoding="UTF-8" standalone="no"?>
<!-- Created with Inkscape (http://www.inkscape.org/) -->

<svg
   xmlns:dc="http://purl.org/dc/elements/1.1/"
   xmlns:cc="http://creativecommons.org/ns#"
   xmlns:rdf="http://www.w3.org/1999/02/22-rdf-syntax-ns#"
   xmlns:svg="http://www.w3.org/2000/svg"
   xmlns="http://www.w3.org/2000/svg"
   xmlns:sodipodi="http://sodipodi.sourceforge.net/DTD/sodipodi-0.dtd"
   xmlns:inkscape="http://www.inkscape.org/namespaces/inkscape"
   width="210mm"
   height="57.5mm"
   viewBox="0 0 210.00001 57.500003"
   version="1.1"
   id="svg88"
   inkscape:version="0.92.3 (2405546, 2018-03-11)"
   sodipodi:docname="agree.svg">
  <defs
     id="defs82">
    <inkscape:path-effect
       effect="mirror_symmetry"
       start_point="21.552003,165.1808"
       end_point="21.552003,168.01562"
       center_point="21.552003,166.59821"
       id="path-effect5077"
       is_visible="true"
       mode="free"
       discard_orig_path="false"
       fuse_paths="false"
       oposite_fuse="false" />
    <inkscape:path-effect
       effect="attach_path"
       id="path-effect5021"
       endcurvestart="0,0 , 20,0"
       startposition="1.4"
       startcurvestart="0,0 , 19.996954,0.34904813"
       startcurveend="0,0 , 19.996954,0.34904813"
       is_visible="true"
       startpath=""
       endpath=""
       endposition="0"
       endcurveend="0,0 , 20,0" />
    <inkscape:path-effect
       effect="ellipse_5pts"
       id="path-effect5017"
       is_visible="true" />
    <inkscape:path-effect
       effect="envelope"
       id="path-effect5013"
       is_visible="true"
       yy="true"
       xx="true"
       bendpath1="M 31.355286,159.22661 H 58.94569"
       bendpath2="m 58.94569,159.22661 v 25.98351"
       bendpath3="M 31.355286,185.21012 H 58.94569"
       bendpath4="m 31.355286,159.22661 v 25.98351" />
    <inkscape:path-effect
       effect="perspective-envelope"
       up_left_point="31.355286,159.22661"
       up_right_point="58.94569,159.22661"
       down_left_point="31.355286,185.21012"
       down_right_point="58.94569,185.21012"
       id="path-effect4983"
       is_visible="true"
       deform_type="envelope_deformation"
       horizontal_mirror="false"
       vertical_mirror="false"
       overflow_perspective="false" />
    <inkscape:path-effect
       effect="bend_path"
       id="path-effect4937"
       is_visible="true"
       bendpath="M 27.877258,174.17575 H 58.833202"
       prop_scale="1"
       scale_y_rel="false"
       vertical="false" />
    <inkscape:path-effect
       effect="powerstroke"
       id="path-effect4935"
       is_visible="true"
       offset_points="4.5,0.030042261"
       sort_points="true"
       interpolator_type="CubicBezierSmooth"
       interpolator_beta="0.2"
       start_linecap_type="zerowidth"
       linejoin_type="extrp_arc"
       miter_limit="4"
       end_linecap_type="butt" />
    <inkscape:path-effect
       effect="vonkoch"
       id="path-effect4931"
       is_visible="true"
       ref_path="M 27.877258,174.17575 H 58.833202"
       generator="m 27.877258,186.43659 h 10.318648 m 10.318648,0 h 10.318648"
       similar_only="false"
       nbgenerations="1"
       drawall="true"
       maxComplexity="1000" />
    <inkscape:path-effect
       effect="bspline"
       id="path-effect4929"
       is_visible="true"
       weight="33.333333"
       steps="2"
       helper_size="0"
       apply_no_weight="true"
       apply_with_weight="true"
       only_selected="false" />
    <inkscape:path-effect
       effect="lattice2"
       gridpoint0="27.877258,161.91492"
       gridpoint1="58.833202,161.91492"
       gridpoint2="27.877258,186.43659"
       gridpoint3="58.833202,186.43659"
       gridpoint4="35.616244,161.91492"
       gridpoint5="51.094216,161.91492"
       gridpoint6="35.616244,186.43659"
       gridpoint7="51.094216,186.43659"
       gridpoint8x9="43.35523,161.91492"
       gridpoint10x11="43.35523,186.43659"
       gridpoint12="27.877258,168.04534"
       gridpoint13="58.833202,168.04534"
       gridpoint14="27.877258,180.30617"
       gridpoint15="58.833202,180.30617"
       gridpoint16="35.616244,168.04534"
       gridpoint17="51.094216,168.04534"
       gridpoint18="35.616244,180.30617"
       gridpoint19="51.094216,180.30617"
       gridpoint20x21="43.35523,168.04534"
       gridpoint22x23="43.35523,180.30617"
       gridpoint24x26="27.877258,174.17575"
       gridpoint25x27="58.833202,174.17575"
       gridpoint28x30="35.616244,174.17575"
       gridpoint29x31="51.094216,174.17575"
       gridpoint32x33x34x35="43.35523,174.17575"
       id="path-effect4927"
       is_visible="true"
       horizontal_mirror="false"
       vertical_mirror="false"
       live_update="true" />
    <inkscape:path-effect
       effect="spiro"
       id="path-effect4925"
       is_visible="true" />
    <inkscape:path-effect
       effect="knot"
       id="path-effect4923"
       is_visible="true"
       interruption_width="3"
       prop_to_stroke_width="true"
       add_stroke_width="true"
       add_other_stroke_width="true"
       switcher_size="15"
       crossing_points_vector="" />
    <inkscape:perspective
       sodipodi:type="inkscape:persp3d"
       inkscape:vp_x="-2.9548234 : 148.85709 : 1"
       inkscape:vp_y="0 : 1502.183 : 0"
       inkscape:vp_z="261.84427 : 148.85709 : 1"
       inkscape:persp3d-origin="129.44471 : 74.499049 : 1"
       id="perspective4773" />
    <inkscape:perspective
       sodipodi:type="inkscape:persp3d"
       inkscape:vp_x="21.296087 : 146.2927 : 1"
       inkscape:vp_y="0 : 390.91708 : 0"
       inkscape:vp_z="101.93399 : 146.2927 : 1"
       inkscape:persp3d-origin="61.615039 : 126.94232 : 1"
       id="perspective4773-4" />
  </defs>
  <sodipodi:namedview
     id="base"
     pagecolor="#ffffff"
     bordercolor="#666666"
     borderopacity="1.0"
     inkscape:pageopacity="0.0"
     inkscape:pageshadow="2"
     inkscape:zoom="1.4"
     inkscape:cx="489.05532"
     inkscape:cy="12.95017"
     inkscape:document-units="mm"
     inkscape:current-layer="text117-3"
     showgrid="false"
     inkscape:window-width="1920"
     inkscape:window-height="1023"
     inkscape:window-x="0"
     inkscape:window-y="25"
     inkscape:window-maximized="1"
     showguides="true"
     inkscape:guide-bbox="true"
     units="mm"
     inkscape:pagecheckerboard="true"
     scale-x="1"
     height="21mm" />
  <metadata
     id="metadata85">
    <rdf:RDF>
      <cc:Work
         rdf:about="">
        <dc:format>image/svg+xml</dc:format>
        <dc:type
           rdf:resource="http://purl.org/dc/dcmitype/StillImage" />
        <dc:title></dc:title>
      </cc:Work>
    </rdf:RDF>
  </metadata>
  <g
     inkscape:label="Camada 1"
     inkscape:groupmode="layer"
     id="layer1"
     transform="translate(0,-239.4999)">
    <g
       aria-label="Agree"
       style="font-style:italic;font-variant:normal;font-weight:bold;font-stretch:normal;font-size:25.39999962px;line-height:1.25;font-family:Sarabun;-inkscape-font-specification:'Sarabun, Bold Italic';font-variant-ligatures:normal;font-variant-caps:normal;font-variant-numeric:normal;font-feature-settings:normal;text-align:start;letter-spacing:0px;word-spacing:0px;writing-mode:lr-tb;text-anchor:start;fill:#000000;fill-opacity:1;stroke:none;stroke-width:0.26458332"
       id="text92"
       transform="translate(-0.85780713,-2.2678571)">
      <g
         aria-label="Agree"
         style="font-style:italic;font-variant:normal;font-weight:bold;font-stretch:normal;font-size:25.39999962px;line-height:1.25;font-family:Barlow;-inkscape-font-specification:'Barlow, Bold Italic';font-variant-ligatures:normal;font-variant-caps:normal;font-variant-numeric:normal;font-feature-settings:normal;text-align:start;letter-spacing:0px;word-spacing:0px;writing-mode:lr-tb;text-anchor:start;fill:#000000;fill-opacity:1;stroke:none;stroke-width:0.07000434"
         id="text117-3">
        <path
           style="font-style:italic;font-variant:normal;font-weight:bold;font-stretch:normal;font-size:25.39999962px;font-family:Barlow;-inkscape-font-specification:'Barlow, Bold Italic';font-variant-ligatures:normal;font-variant-caps:normal;font-variant-numeric:normal;font-feature-settings:normal;text-align:start;writing-mode:lr-tb;text-anchor:start;stroke-width:0.15177518"
           d="m 85.858911,247.90109 c -0.330392,0 -0.587278,0.18447 -0.770801,0.55219 l -8.646024,19.94729 5.756549,4.80774 6.414221,-15.61376 c 0.03617,-0.12057 0.09163,-0.16638 0.164691,-0.16638 0.07354,-0.0361 0.129123,0.012 0.165774,0.16638 l 2.807681,16.35535 c 0,0.22063 -0.09163,0.33035 -0.274523,0.33035 h -9.416846 c -0.0075,0 -0.01187,-0.004 -0.01905,-0.004 H 73.89541 l -4.943143,11.4033 c -0.110192,0.22063 -0.128413,0.40388 -0.05461,0.55098 0.110193,0.14708 0.276031,0.22063 0.496362,0.22063 h 6.827634 c 0.367117,0 0.605798,-0.18326 0.715956,-0.54978 l 2.258704,-5.39691 c 0.07354,-0.1471 0.164364,-0.22185 0.274536,-0.22185 h 13.162332 c 0.07354,0 0.127437,0.0361 0.164692,0.12058 0.03617,0.0361 0.05425,0.0723 0.05425,0.12055 l 0.936541,5.39693 c 0.07354,0.36651 0.27573,0.54977 0.606195,0.54977 h 6.827631 c 0.18363,0 0.33131,-0.0483 0.44151,-0.16517 0.11092,-0.12057 0.16469,-0.25559 0.16469,-0.44006 v -0.16638 l -6.93857,-37.22593 c -0.110916,-0.36652 -0.330708,-0.55219 -0.660931,-0.55219 z"
           id="path137"
           inkscape:connector-curvature="0" />
        <path
           d="m 124.95301,258.80465 q 0.0554,-0.27488 0.22027,-0.44006 0.22027,-0.21942 0.49564,-0.21942 h 6.2779 q 0.27537,0 0.44053,0.21942 0.16519,0.16638 0.11092,0.44006 l -3.08387,25.11166 q -0.93618,7.21419 -5.34174,10.29797 -4.40552,3.08379 -10.68343,3.08379 -1.87235,0 -4.18527,-0.27489 -0.55074,-0.12056 -0.44054,-0.71735 l 0.93618,-5.67217 q 0.0555,-0.71615 0.771,-0.60644 1.92742,0.33034 3.52443,0.33034 3.46938,0 5.45187,-1.54189 2.03758,-1.54189 2.42305,-4.95626 0.0555,-0.16517 -0.0555,-0.16517 -0.11091,-0.0482 -0.22027,0.0483 -2.36797,2.2578 -6.22283,2.2578 -3.46937,0 -6.16777,-1.70718 -2.69839,-1.76204 -3.46936,-5.61696 -0.22027,-1.1562 -0.22027,-2.80853 0,-1.4317 0.22027,-3.74472 0.60583,-4.40553 1.8173,-6.99379 1.54194,-3.35927 4.4606,-5.39669 2.91868,-2.03764 6.44312,-2.03764 4.18526,0 6.00254,2.53328 0.1109,0.12057 0.22026,0.12057 0.1109,-0.0483 0.1109,-0.22063 z m -2.58825,17.78752 q 0.60583,-1.59712 0.99128,-4.51585 0.22027,-1.59687 0.22027,-2.69833 0,-0.99103 -0.16518,-1.70706 -0.27537,-1.48693 -1.32165,-2.368 -0.99128,-0.93678 -2.64333,-0.93678 -1.597,0 -2.86361,0.93678 -1.21155,0.88133 -1.92742,2.368 -0.93618,1.59699 -1.32166,4.46051 -0.16518,1.37671 -0.16518,2.42309 0,1.1574 0.27537,1.98255 0.27537,1.48679 1.37673,2.42298 1.10148,0.88131 2.75347,0.88131 1.70715,0 2.91867,-0.88131 1.26664,-0.93679 1.87236,-2.36789 z"
           style="font-style:italic;font-variant:normal;font-weight:bold;font-stretch:normal;font-size:25.39999962px;font-family:Barlow;-inkscape-font-specification:'Barlow, Bold Italic';font-variant-ligatures:normal;font-variant-caps:normal;font-variant-numeric:normal;font-feature-settings:normal;text-align:start;writing-mode:lr-tb;text-anchor:start;stroke-width:0.15177518"
           id="path139"
           inkscape:connector-curvature="0" />
        <path
           d="m 151.66506,257.7584 q 1.92743,0 2.97373,0.7704 0.44055,0.22063 0.22028,0.82586 l -1.87236,6.27776 q -0.16517,0.6619 -0.8261,0.38461 -0.71591,-0.27489 -1.87235,-0.27489 -0.38544,0 -1.15645,0.12057 -1.92743,0.16638 -3.46936,1.48691 -1.48688,1.32162 -1.70715,3.41425 l -1.87236,15.03396 q -0.0555,0.27489 -0.27536,0.49552 -0.16518,0.16638 -0.44055,0.16638 h -6.22284 q -0.27535,0 -0.44054,-0.16638 -0.16517,-0.22063 -0.1109,-0.49552 l 3.30416,-26.98389 q 0.0554,-0.27489 0.22027,-0.44127 0.22026,-0.22063 0.49563,-0.22063 h 6.22284 q 0.27537,0 0.44053,0.22063 0.16518,0.16638 0.11091,0.44127 l -0.22027,2.0925 q -0.0555,0.16638 0.0554,0.21943 0.1109,0.0483 0.22027,-0.0482 2.47812,-3.30406 6.22283,-3.30406 z"
           style="font-style:italic;font-variant:normal;font-weight:bold;font-stretch:normal;font-size:25.39999962px;font-family:Barlow;-inkscape-font-specification:'Barlow, Bold Italic';font-variant-ligatures:normal;font-variant-caps:normal;font-variant-numeric:normal;font-feature-settings:normal;text-align:start;writing-mode:lr-tb;text-anchor:start;stroke-width:0.15177518"
           id="path141"
           inkscape:connector-curvature="0" />
        <path
           style="font-style:italic;font-variant:normal;font-weight:bold;font-stretch:normal;font-size:25.39999962px;font-family:Barlow;-inkscape-font-specification:'Barlow, Bold Italic';font-variant-ligatures:normal;font-variant-caps:normal;font-variant-numeric:normal;font-feature-settings:normal;text-align:start;writing-mode:lr-tb;text-anchor:start;stroke-width:0.15177518"
           d="m 169.53058,257.64832 c -2.79017,0 -5.32339,0.7704 -7.59958,2.31254 -1.47515,1.01635 -2.70672,2.26793 -3.70401,3.74556 l 5.44734,4.54875 c 0.076,-0.20615 0.14503,-0.40268 0.2398,-0.63898 0.95451,-2.16593 2.56948,-3.24908 4.84568,-3.24908 1.17477,0 2.11126,0.31226 2.8088,0.93678 0.73424,0.58715 1.19346,1.43182 1.37695,2.5333 0.0735,0.58713 0.10969,1.10074 0.10969,1.54152 0,0.18447 -0.0929,0.27488 -0.27561,0.27488 h -9.25105 c -0.0132,0 -0.0217,-0.004 -0.0326,-0.007 h -7.78109 c -0.16565,0.77523 -0.27947,1.56552 -0.33722,2.37402 -0.1109,0.99104 -0.16468,1.92662 -0.16468,2.80769 0,1.57867 0.14672,2.8822 0.44029,3.91025 0.62417,2.5697 1.90834,4.57107 3.85415,6.00288 1.94575,1.43194 4.44262,2.14798 7.48977,2.14798 2.20278,0 4.27686,-0.4039 6.22264,-1.21215 1.9825,-0.84395 3.65312,-2.01824 5.01148,-3.5236 0.14697,-0.14709 0.22064,-0.31227 0.22064,-0.49673 0,-0.14709 -0.0555,-0.29298 -0.1659,-0.44005 l -3.41383,-3.91026 c -0.25691,-0.33034 -0.53204,-0.29418 -0.82562,0.12056 -1.61537,1.87224 -3.54284,2.82687 -5.78233,2.86364 -2.79016,0 -4.55286,-1.02841 -5.28709,-3.0833 -0.18363,-0.6607 -0.29383,-1.39504 -0.33059,-2.2027 0,-0.18447 0.0928,-0.2749 0.2756,-0.2749 h 16.52125 c 0.40377,0 0.66068,-0.22063 0.77077,-0.66068 0.25691,-1.98255 0.36724,-3.54289 0.33046,-4.68114 -0.0361,-3.56109 -0.9914,-6.40569 -2.86371,-8.53509 -1.87234,-2.12927 -4.58967,-3.19409 -8.15082,-3.19409 z"
           id="path143"
           inkscape:connector-curvature="0" />
        <path
           inkscape:connector-curvature="0"
           style="font-style:italic;font-variant:normal;font-weight:bold;font-stretch:normal;font-size:25.39999962px;line-height:1.25;font-family:Barlow;-inkscape-font-specification:'Barlow, Bold Italic';font-variant-ligatures:normal;font-variant-caps:normal;font-variant-numeric:normal;font-feature-settings:normal;text-align:start;letter-spacing:0px;word-spacing:0px;writing-mode:lr-tb;text-anchor:start;fill:#000000;fill-opacity:1;stroke:none;stroke-width:0.15177518"
           d="m 198.67367,257.64797 c -2.79018,0 -5.32342,0.77039 -7.59958,2.31242 -1.47518,1.01514 -2.70676,2.26779 -3.70402,3.74542 l 5.44732,4.54876 c 0.076,-0.20736 0.14505,-0.40268 0.23981,-0.63898 0.9545,-2.16605 2.56947,-3.2492 4.84567,-3.2492 1.17478,0 2.11127,0.31225 2.80881,0.93678 0.73422,0.58715 1.19346,1.43181 1.37697,2.53329 0.0735,0.58714 0.10967,1.10075 0.10967,1.54165 0,0.18446 -0.0929,0.27488 -0.27561,0.27488 h -9.25104 c -0.012,0 -0.0217,-0.004 -0.0326,-0.007 h -7.78111 c -0.16565,0.77402 -0.27946,1.56539 -0.33721,2.37389 -0.11091,0.99105 -0.16481,1.92662 -0.16481,2.8077 0,1.57867 0.14661,2.8822 0.44029,3.91025 0.62405,2.56983 1.90835,4.57119 3.85413,6.003 1.94578,1.43181 4.44262,2.14773 7.48978,2.14773 2.20279,0 4.27686,-0.40389 6.22262,-1.21202 1.9825,-0.84396 3.65313,-2.01849 5.01151,-3.52362 0.14685,-0.14708 0.22063,-0.31225 0.22063,-0.49672 0,-0.14708 -0.0555,-0.29297 -0.16589,-0.44006 l -3.41384,-3.91013 c -0.25692,-0.32913 -0.53206,-0.29297 -0.82562,0.12057 -1.61537,1.87224 -3.54285,2.82686 -5.78234,2.86352 -2.79017,0 -4.55285,-1.02721 -5.28713,-3.0832 -0.18361,-0.66188 -0.29368,-1.39503 -0.33046,-2.2027 0,-0.18445 0.0928,-0.27488 0.27561,-0.27488 h 16.52122 c 0.4039,0 0.66058,-0.22063 0.7709,-0.65948 0.25703,-1.98255 0.36722,-3.54277 0.33057,-4.6809 -0.0361,-3.56109 -0.99139,-6.4058 -2.8637,-8.53521 -1.87237,-2.12927 -4.58968,-3.19421 -8.15083,-3.19421 z"
           id="path143-6" />
        <path
           style="fill:#000000;fill-rule:nonzero;stroke:none;stroke-width:0.02964427;stroke-miterlimit:4;stroke-dasharray:none;stroke-opacity:0.41991344"
           d="m 5.6821688,242.72696 c 0,0 -4.37219,1.76639 -3.9191191,12.16081 v 35.32125 h 0.00114 v 8.85217 C 10.527571,293.831 18.095172,290.20312 27.507344,286.27081 l -4.99133,3.93821 c 0,0 15.024324,3.69397 38.999577,0 v -35.32125 c 0.453055,-10.39442 -3.919119,-12.16081 -3.919119,-12.16081 0,0 -4.295855,1.5167 -11.318151,11.13445 -0.03484,0.0603 -0.221983,0.22304 -0.244215,0.28333 -8.162618,-0.27971 -18.569333,-0.45936 -28.851098,-0.15794 -0.0045,-0.008 -0.0052,-0.012 -0.01024,-0.0242 C 10.150427,244.34505 5.6820228,242.72853 5.6820228,242.72853 Z m 40.5479532,21.21685 a 3.0794033,4.1938918 61.178555 0 1 0.37423,0.0242 3.0794033,4.1938918 61.178555 0 1 2.156752,3.78353 3.0794033,4.1938918 61.178555 0 1 -5.172832,2.90173 3.0794033,4.1938918 61.178555 0 1 -2.156749,-3.78329 3.0794033,4.1938918 61.178555 0 1 4.798627,-2.92886 z m -29.003479,0.0483 a 4.1938918,3.0794033 28.821445 0 1 4.798621,2.92874 4.1938918,3.0794033 28.821445 0 1 -2.156743,3.78354 4.1938918,3.0794033 28.821445 0 1 -5.172839,-2.90186 4.1938918,3.0794033 28.821445 0 1 2.156751,-3.78342 4.1938918,3.0794033 28.821445 0 1 0.37423,-0.0242 z m 14.928046,7.31389 c 9.257598,0.10856 0,6.14539 0,6.14539 0,0 -9.257608,-6.04279 0,-6.14539 z"
           id="rect4839"
           inkscape:connector-curvature="0" />
      </g>
    </g>
  </g>
</svg>
